<?xml version="1.0" encoding="utf-8"?>
<!-- Generator: Adobe Illustrator 15.0.0, SVG Export Plug-In . SVG Version: 6.00 Build 0)  -->
<!DOCTYPE svg PUBLIC "-//W3C//DTD SVG 1.1//EN" "http://www.w3.org/Graphics/SVG/1.1/DTD/svg11.dtd">
<svg version="1.1"
	 id="svg2" xmlns:svg="http://www.w3.org/2000/svg" xmlns:dc="http://purl.org/dc/elements/1.1/" xmlns:cc="http://creativecommons.org/ns#" xmlns:rdf="http://www.w3.org/1999/02/22-rdf-syntax-ns#"
	 xmlns="http://www.w3.org/2000/svg" xmlns:xlink="http://www.w3.org/1999/xlink" x="0px" y="0px" width="714.719px"
	 height="714.634px" viewBox="0 0 714.719 714.634" enable-background="new 0 0 714.719 714.634" xml:space="preserve">
<g id="g10" transform="matrix(1.3333333,0,0,-1.3333333,0,1133.8533)">
	<g id="g14">
		<g>
			<defs>
				<rect id="SVGID_1_" x="-89.333" y="-141.732" width="714.667" height="1133.859"/>
			</defs>
			<clipPath id="SVGID_2_">
				<use xlink:href="#SVGID_1_"  overflow="visible"/>
			</clipPath>
			<g id="g16" clip-path="url(#SVGID_2_)">
				<path id="path22" fill="#0091FF" d="M268.023,850.394C120,850.394,0,730.397,0,582.375c0-148.027,120-268.023,268.023-268.023
					c148.029,0,268.022,119.996,268.022,268.023C536.045,730.397,416.053,850.394,268.023,850.394L268.023,850.394"/>
				<path id="path34" fill="#FFFFFF" d="M442.24,582.375c0-96.218-77.999-174.216-174.216-174.216
					c-96.215,0-174.213,77.999-174.213,174.216h85.767c0-48.851,39.598-88.451,88.446-88.451c48.851,0,88.445,39.6,88.445,88.451
					H442.24L442.24,582.375"/>
			</g>
		</g>
	</g>
</g>
</svg>
